<?xml version="1.0" encoding="UTF-8" standalone="no"?>
<!-- Created with Inkscape (http://www.inkscape.org/) -->

<svg
   xmlns:dc="http://purl.org/dc/elements/1.1/"
   xmlns:cc="http://creativecommons.org/ns#"
   xmlns:rdf="http://www.w3.org/1999/02/22-rdf-syntax-ns#"
   xmlns:svg="http://www.w3.org/2000/svg"
   xmlns="http://www.w3.org/2000/svg"
   xmlns:sodipodi="http://sodipodi.sourceforge.net/DTD/sodipodi-0.dtd"
   xmlns:inkscape="http://www.inkscape.org/namespaces/inkscape"
   width="210mm"
   height="297mm"
   viewBox="0 0 210 297"
   version="1.1"
   id="svg8"
   inkscape:version="0.92.3 (2405546, 2018-03-11)"
   sodipodi:docname="oissa2LogoSinglePage.svg"
   inkscape:export-filename="C:\Users\andybandy\Desktop\oissa2CoverGitbook.png"
   inkscape:export-xdpi="96"
   inkscape:export-ydpi="96">
  <defs
     id="defs2">
    <clipPath
       id="clipPath28"
       clipPathUnits="userSpaceOnUse">
      <path
         inkscape:connector-curvature="0"
         id="path26"
         d="M 15,15 H 856.89 V 610.275 H 15 Z" />
    </clipPath>
    <clipPath
       id="clipPath300"
       clipPathUnits="userSpaceOnUse">
      <path
         inkscape:connector-curvature="0"
         id="path298"
         d="M 15,15 H 856.89 V 610.275 H 15 Z" />
    </clipPath>
    <clipPath
       id="clipPath400"
       clipPathUnits="userSpaceOnUse">
      <path
         inkscape:connector-curvature="0"
         id="path398"
         d="m 84.732,51 h 82.602 V 75.661 H 84.732 Z" />
    </clipPath>
    <clipPath
       id="clipPath672"
       clipPathUnits="userSpaceOnUse">
      <path
         inkscape:connector-curvature="0"
         id="path670"
         d="M 0,0 H 871.89 V 625.276 H 0 Z" />
    </clipPath>
    <clipPath
       clipPathUnits="userSpaceOnUse"
       id="clipPath3668">
      <rect
         style="opacity:1;vector-effect:none;fill:#ffffff;fill-opacity:1;stroke:none;stroke-width:0.80741084;stroke-linecap:butt;stroke-linejoin:miter;stroke-miterlimit:4;stroke-dasharray:none;stroke-dashoffset:0;stroke-opacity:1"
         id="rect3670"
         width="476.25"
         height="624.41669"
         x="75.595268"
         y="-366.04761" />
    </clipPath>
    <clipPath
       clipPathUnits="userSpaceOnUse"
       id="clipPath3668-1">
      <rect
         style="opacity:1;vector-effect:none;fill:#ffffff;fill-opacity:1;stroke:none;stroke-width:0.80741084;stroke-linecap:butt;stroke-linejoin:miter;stroke-miterlimit:4;stroke-dasharray:none;stroke-dashoffset:0;stroke-opacity:1"
         id="rect3670-0"
         width="476.25"
         height="624.41669"
         x="75.595268"
         y="-366.04761" />
    </clipPath>
    <clipPath
       clipPathUnits="userSpaceOnUse"
       id="clipPath1600">
      <rect
         style="opacity:1;vector-effect:none;fill:#ffffff;fill-opacity:1;stroke:none;stroke-width:6.68694592;stroke-linecap:butt;stroke-linejoin:miter;stroke-miterlimit:4;stroke-dasharray:none;stroke-dashoffset:0;stroke-opacity:1"
         id="rect1602"
         width="476.24994"
         height="238.12498"
         x="-447.15146"
         y="182.24745" />
    </clipPath>
    <clipPath
       clipPathUnits="userSpaceOnUse"
       id="clipPath1600-1">
      <rect
         style="opacity:1;vector-effect:none;fill:#ffffff;fill-opacity:1;stroke:none;stroke-width:6.68694592;stroke-linecap:butt;stroke-linejoin:miter;stroke-miterlimit:4;stroke-dasharray:none;stroke-dashoffset:0;stroke-opacity:1"
         id="rect1602-7"
         width="476.24994"
         height="238.12498"
         x="-447.15146"
         y="182.24745" />
    </clipPath>
    <clipPath
       clipPathUnits="userSpaceOnUse"
       id="clipPath3668-1-2">
      <rect
         style="opacity:1;vector-effect:none;fill:#ffffff;fill-opacity:1;stroke:none;stroke-width:0.80741084;stroke-linecap:butt;stroke-linejoin:miter;stroke-miterlimit:4;stroke-dasharray:none;stroke-dashoffset:0;stroke-opacity:1"
         id="rect3670-0-1"
         width="476.25"
         height="624.41669"
         x="75.595268"
         y="-366.04761" />
    </clipPath>
  </defs>
  <sodipodi:namedview
     id="base"
     pagecolor="#ffffff"
     bordercolor="#666666"
     borderopacity="1.0"
     inkscape:pageopacity="0.0"
     inkscape:pageshadow="2"
     inkscape:zoom="1"
     inkscape:cx="171.50414"
     inkscape:cy="66.331223"
     inkscape:document-units="mm"
     inkscape:current-layer="layer1"
     showgrid="false"
     inkscape:window-width="1366"
     inkscape:window-height="705"
     inkscape:window-x="-8"
     inkscape:window-y="-8"
     inkscape:window-maximized="1" />
  <metadata
     id="metadata5">
    <rdf:RDF>
      <cc:Work
         rdf:about="">
        <dc:format>image/svg+xml</dc:format>
        <dc:type
           rdf:resource="http://purl.org/dc/dcmitype/StillImage" />
        <dc:title></dc:title>
      </cc:Work>
    </rdf:RDF>
  </metadata>
  <g
     inkscape:label="Layer 1"
     inkscape:groupmode="layer"
     id="layer1">
    <rect
       style="opacity:1;vector-effect:none;fill:#e9e6ba;fill-opacity:1;stroke:#666666;stroke-width:0.26461947;stroke-linecap:butt;stroke-linejoin:miter;stroke-miterlimit:4;stroke-dasharray:none;stroke-dashoffset:0;stroke-opacity:1"
       id="rect4350-2"
       width="26.193714"
       height="18.256214"
       x="33.829769"
       y="251.97621"
       inkscape:export-filename="C:\Users\andybandy\Desktop\trash\OISSARTrisorse.png"
       inkscape:export-xdpi="96"
       inkscape:export-ydpi="96" />
    <g
       id="g6276"
       transform="matrix(0.29999959,0,0,0.29870072,245.03464,241.93549)"
       inkscape:export-filename="C:\Users\andybandy\Desktop\trash\OISSARTrisorse.png"
       inkscape:export-xdpi="96"
       inkscape:export-ydpi="96">
      <path
         inkscape:connector-curvature="0"
         id="path220-2-9-9"
         style="fill:#a61b20;fill-opacity:1;fill-rule:evenodd;stroke:none;stroke-width:1.06202924"
         d="m -628.70968,59.043364 c -0.23365,1.543129 -0.47262,3.119179 -0.72748,4.799309 1.50701,0.720057 2.09217,2.10919 2.42566,3.687366 0.85386,4.03996 1.75766,8.069299 2.60198,12.111383 0.19434,0.930338 0.23152,1.8936 0.34622,2.889783 -0.53208,0.661643 -1.32011,0.643589 -2.25151,0.744483 -1.70668,-4.371312 -3.41443,-8.745813 -5.12216,-13.120312 -0.0468,-0.0011 -0.0935,-0.0011 -0.14025,-0.0021 0.37066,4.560354 0.74023,9.12177 1.11938,13.780894 -0.856,0.217715 -1.63978,0.417377 -2.52019,0.641465 -0.1381,-0.243188 -0.33349,-0.472588 -0.40995,-0.738095 -1.15866,-4.026154 -2.32903,-8.049119 -3.4346,-12.090143 -0.61703,-2.254686 -0.49278,-3.956058 0.30269,-6.28084 -1.12576,-2.780394 -3.07139,-5.304838 -3.68526,-8.368791 -0.91866,-0.527828 -1.84792,-0.951579 -2.65082,-1.54419 -1.99448,-1.475161 -3.13299,-3.601342 -3.99428,-5.842225 -0.63723,-1.661013 -0.98026,-3.42823 -1.33286,-5.292091 0.9537,-0.242143 1.73855,-0.442867 2.59454,-0.660583 0.85281,0.58093 0.95051,1.577114 1.15974,2.486212 0.46623,2.022102 1.26169,3.855167 2.69755,5.39086 0.9877,1.058843 2.19203,1.655704 3.60983,1.808635 0.38234,0.04036 0.78591,-0.108333 1.20115,-0.173113 -0.087,-1.108758 -0.21664,-2.107066 -0.22408,-3.105373 -0.006,-0.583056 0.10193,-1.196908 0.30482,-1.743852 0.29734,-0.800771 1.10875,-1.191597 1.8734,-1.038666 0.86662,0.174164 1.42312,0.884672 1.41145,1.81076 -9.5e-4,0.179485 0.019,0.371711 -0.0404,0.53314 -0.20815,0.556503 -0.44815,1.102387 -0.71154,1.73748 0.12956,0.231523 0.29949,0.5342 0.50551,0.901662 0.44926,0.01389 0.91761,0.04248 1.38596,0.04036 0,0 0.4864,0.0021 0.69457,-0.148678 1.15549,-0.834755 1.94351,-1.91059 2.3046,-3.313532 0.52569,-2.035909 0.34728,-4.027213 -0.21136,-6.024891 -0.25169,-0.898477 -0.64146,-1.820318 -0.17104,-2.737913 0.856,-0.217718 1.64084,-0.417379 2.59454,-0.660584 0.58199,1.804388 1.12681,3.520626 1.36152,5.283596 0.31648,2.380008 0.33347,4.790815 -0.71157,7.041254 -0.42056,0.90485 -1.03441,1.72155 -1.58879,2.624275 z" />
      <path
         inkscape:connector-curvature="0"
         id="path224-4-6-5"
         style="fill:#e2ad3a;fill-opacity:1;fill-rule:evenodd;stroke:none;stroke-width:1.06202924"
         d="m -696.25166,82.797879 c 0.15501,-0.09982 0.45986,-0.302679 0.77315,-0.49172 1.83731,-1.107697 3.72667,-2.13999 5.50238,-3.33902 1.94245,-1.314793 3.24663,-3.173345 3.87535,-5.447149 0.37383,-1.351963 0.64571,-2.731539 1.04396,-4.447779 -0.9367,-1.658889 -2.05183,-3.634264 -3.19883,-5.666987 -3.59284,2.537187 -5.45458,5.919751 -5.34943,10.433375 -1.03336,-0.153999 -1.97751,-0.294183 -2.86217,-0.425873 -0.65847,-3.507884 0.4726,-7.803792 2.01254,-10.435501 2.07626,-3.549302 5.29209,-5.475825 9.40427,-6.498558 -0.37064,-0.511898 -0.6011,-0.915469 -0.9144,-1.240449 -0.3802,-0.395076 -0.89104,-0.673326 -1.23409,-1.092828 -0.58412,-0.713685 -0.54801,-1.526138 -0.0106,-2.201588 0.52678,-0.665892 1.38702,-0.954764 2.13362,-0.512961 0.66377,0.39189 1.34134,0.909098 1.75661,1.538882 0.58517,0.891043 0.93458,1.936079 1.41994,2.989612 2.57435,-0.781653 4.87045,-2.093261 6.65573,-4.08138 2.26848,-2.527628 3.1574,-5.620258 2.86323,-8.969899 1.09707,-0.535262 2.03166,-0.301617 2.96943,-0.123192 0.55757,2.224952 0.3696,4.380871 -0.009,6.48475 -0.26975,1.491091 -0.81776,2.964126 -1.44329,4.35326 -1.31161,2.914207 -3.6948,4.823737 -6.2012,6.087552 -0.20283,2.997047 -0.38657,5.680794 -0.5788,8.514288 1.8235,0.830508 2.48196,2.648702 2.76978,4.668681 0.12956,0.908036 0.12529,1.835188 0.21772,2.75172 0.39506,3.900833 0.8082,7.801666 1.19689,11.704624 0.034,0.337729 -0.0562,0.687134 -0.0914,1.062029 -0.94201,0.141256 -1.77996,0.265508 -2.77509,0.415254 -0.2527,-0.677574 -0.52989,-1.278682 -0.70301,-1.909526 -0.65421,-2.375762 -1.23619,-4.772763 -1.92121,-7.141088 -0.4365,-1.50808 -1.00573,-2.976867 -1.57393,-4.637882 -3.04377,5.08712 -7.06886,8.681029 -12.55637,10.14769 l -3.01617,-2.588165" />
      <path
         inkscape:connector-curvature="0"
         id="path304-7-0-9"
         style="fill:#231740;fill-opacity:1;fill-rule:evenodd;stroke:none;stroke-width:1.06202924"
         d="m -644.74223,72.476332 c -1.58879,-2.561615 -3.18609,-5.116856 -4.78125,-7.675286 -0.22302,-0.356843 -0.45668,-0.710498 -0.67547,-1.049284 -0.18478,1.218147 -0.37276,2.460722 -0.57348,3.786134 1.18842,0.568185 1.65039,1.663139 1.91377,2.907837 0.67333,3.186087 1.38594,6.363679 2.05185,9.551891 0.15288,0.732801 0.18161,1.492152 0.27294,2.280177 -0.42057,0.521457 -1.04078,0.506589 -1.77572,0.58624 -1.3456,-3.447346 -2.69331,-6.89788 -4.03996,-10.348412 -0.0371,0 -0.0734,-0.0011 -0.11052,-0.0011 0.29206,3.597094 0.58411,7.194186 0.88148,10.868807 -0.67331,0.172045 -1.29248,0.329229 -1.98598,0.505526 -0.10946,-0.192227 -0.26445,-0.372771 -0.32393,-0.581992 -0.91334,-3.175467 -1.83625,-6.347749 -2.70924,-9.534899 -0.4864,-1.7789 -0.38765,-3.120242 0.23897,-4.953305 -0.88681,-2.194153 -2.42142,-4.184395 -2.90572,-6.600513 -0.72537,-0.416315 -1.45816,-0.749792 -2.09115,-1.219208 -1.57286,-1.161861 -2.47133,-2.838804 -3.14995,-4.607084 -0.50342,-1.309482 -0.77317,-2.701803 -1.05144,-4.172713 0.75194,-0.191165 1.37108,-0.349407 2.04655,-0.520394 0.67227,0.456673 0.74979,1.241512 0.9144,1.959443 0.36747,1.594106 0.99514,3.04059 2.12725,4.252365 0.77954,0.834755 1.72898,1.306297 2.84731,1.425244 0.3016,0.03186 0.62021,-0.08496 0.94732,-0.135934 -0.069,-0.87405 -0.17103,-1.661013 -0.17726,-2.450102 -0.004,-0.458796 0.0807,-0.943081 0.24109,-1.374265 0.23363,-0.630845 0.87404,-0.939897 1.47727,-0.818826 0.68395,0.137004 1.12256,0.696692 1.11407,1.427368 -0.002,0.141257 0.0142,0.294183 -0.0329,0.420565 -0.16356,0.438617 -0.3526,0.869801 -0.55969,1.370017 0.10088,0.182669 0.23576,0.422687 0.39827,0.711559 0.35364,0.0107 0.72322,0.03292 1.09175,0.03081 3.01298,-0.01496 5.10411,1.533571 6.49219,4.041022 0.74661,1.350901 1.20646,2.860046 1.79165,4.299094 0.12316,0.304803 0.73067,2.88341 0.91121,3.14573 z" />
    </g>
  </g>
  <g
     inkscape:groupmode="layer"
     id="layer2"
     inkscape:label="Layer 2" />
</svg>
